<svg width="117" height="155" viewBox="0 0 117 155" fill="none" xmlns="http://www.w3.org/2000/svg">
<path d="M83.4473 20.3689C87.9354 18.4488 92.5919 18.1299 96.8789 21.3083L97.292 21.6267C99.8499 23.8333 101.658 26.3129 102.025 29.6345C102.159 33.6708 100.823 37.4495 98.8262 41.0134C96.8244 44.5868 94.1833 47.9057 91.7432 51.031C91.2569 51.654 90.7715 52.279 90.291 52.9089C90.1781 53.0563 90.0655 53.2041 89.9492 53.3562L89.9424 53.3659L89.9355 53.3747C89.6051 53.8509 89.3527 54.3275 89.1162 54.8318L88.7891 55.531L89.5605 55.5437C89.9883 55.5508 89.9979 55.5503 90.416 55.5573C91.8337 55.717 92.9303 56.4725 94.2393 57.3445L94.2402 57.3454C94.4507 57.4845 94.4564 57.4875 94.6611 57.6228C96.5328 59.0233 97.8052 61.5472 98.498 63.8552C98.5529 64.4776 98.5531 64.482 98.5547 65.1638L98.5566 65.9587C98.5548 66.2275 98.5526 66.4977 98.5508 66.7741V66.781L98.5566 67.5935C98.5519 69.5306 98.2997 71.2169 97.666 73.032V73.0339C97.5739 73.3003 97.5732 73.3004 97.4795 73.572L97.124 74.5749L97.7773 74.6228C98.0348 74.642 98.2928 74.6608 98.5576 74.6804C101.597 75.0761 104.12 77.0109 106.131 79.3737C108.176 82.3822 108.236 85.5456 107.602 89.1872C107.459 89.7717 107.253 90.3025 107.01 90.8962L106.99 90.9431L106.981 90.9929C106.892 91.4671 106.809 91.9463 106.741 92.4294L106.684 92.8464L107.084 92.9753L107.49 93.1052C110.878 94.2084 113.236 95.7831 115.036 98.8542C115.73 100.404 115.848 102.223 115.638 104.087C115.427 105.953 114.892 107.826 114.321 109.451C113.803 110.823 113.207 112.138 112.52 113.426L112.219 113.975C111.984 114.397 111.757 114.82 111.533 115.242C109.828 118.36 107.659 121.138 105.301 123.834L105.3 123.835L104.642 124.604C103.682 125.731 102.655 126.794 101.605 127.852L100.55 128.911C100.113 129.348 99.6788 129.787 99.2451 130.225C97.6343 131.843 95.9931 133.329 94.2061 134.745L94.1982 134.751L94.1914 134.757C93.9152 134.992 93.6407 135.23 93.3682 135.471C89.0928 139.25 84.3316 142.362 79.418 145.308L79.417 145.309C79.2754 145.395 79.1305 145.482 78.9854 145.57C76.6844 146.956 74.2759 148.094 71.8145 149.24L71.8105 149.242C71.5085 149.386 71.2088 149.534 70.9121 149.684L70.0283 150.138C68.871 150.72 67.6806 151.143 66.4189 151.548L66.415 151.55C66.1012 151.653 66.1002 151.653 65.7812 151.759C65.0853 151.986 64.3964 152.202 63.7012 152.392L63.0029 152.573C62.1394 152.772 62.1156 152.779 61.377 153.044C60.5578 153.308 59.7255 153.469 58.8447 153.622L58.8398 153.623C58.6824 153.652 58.5235 153.682 58.3623 153.712C56.0219 154.125 53.6584 154.21 51.2588 154.219H48.6367C45.3863 154.221 42.5436 153.794 39.4482 152.814L39.4395 152.811C38.6766 152.585 37.9181 152.391 37.1504 152.211C35.3683 151.79 33.7262 151.232 32.0645 150.466L32.0596 150.464L31.2412 150.096H31.2422C26.2184 147.823 21.618 145.042 17.3281 141.579L17.3262 141.578L16.9609 141.285C13.5781 138.568 10.5439 135.513 7.99609 132.015L7.99414 132.013L7.6416 131.534C6.016 129.319 4.1283 126.674 2.70215 123.871C1.27878 121.073 0.342767 118.17 0.549805 115.42C0.802998 114.23 1.17398 113.071 1.54492 111.874H1.5459C2.48387 108.835 3.16494 105.7 3.50391 102.53C3.60832 101.779 3.60386 101.799 3.83105 100.956L3.83203 100.952C4.18058 99.6177 4.24493 98.2621 4.33594 96.9665C4.37238 96.468 4.40956 95.9696 4.44727 95.4714V95.4685C4.46244 95.2548 4.47758 95.0408 4.49316 94.821C4.55407 94.2142 4.55146 94.23 4.66797 93.653L4.66895 93.6511C6.89528 82.4096 4.96197 68.585 1.875 57.8405C1.18982 55.4089 0.619843 53.033 0.553711 50.5544L0.539062 50.0105C0.524852 49.3953 0.516318 48.7797 0.509766 48.1628V48.1599L0.5 47.5739L0.507812 47.0818C0.587289 44.8048 1.24476 42.7908 2.52832 40.9011L2.8125 40.4987L2.81836 40.49C2.97438 40.2678 3.12978 40.0462 3.29004 39.8181C5.20189 37.6352 8.46377 36.5969 11.4072 36.2253C13.9491 36.065 16.3245 36.2292 18.7637 36.9148L18.7646 36.9157L19.5049 37.1228C25.3271 38.9134 29.4797 43.359 32.3926 48.6443V48.6452C33.296 50.3501 34.3119 52.3596 35.084 54.4236C35.8581 56.4931 36.3723 58.5793 36.3027 60.4431L36.2695 61.3181L37.04 60.9011C38.0695 60.3436 38.8459 59.6542 39.623 58.8552L39.9824 58.4939C40.3631 58.1091 40.7423 57.7222 41.1201 57.3366L41.1191 57.3357C44.0061 54.3983 43.9945 54.4131 45.4043 53.2116L45.4062 53.2097C46.2317 52.4977 47.0152 51.7389 47.79 51.0036C49.0125 49.8473 50.2396 48.6993 51.4795 47.5652H51.4805C52.6516 46.4922 53.7762 45.3842 54.8818 44.2507L54.8828 44.2517C55.3665 43.779 55.853 43.3382 56.3682 42.8972L56.3701 42.8952C57.8265 41.6337 59.1511 40.2352 60.4697 38.8845C61.6978 37.641 62.9646 36.5064 64.3311 35.4138L64.3359 35.4109C65.0903 34.7936 65.7538 34.1395 66.416 33.4538L66.415 33.4529C67.2978 32.5512 68.1893 31.6925 69.1416 30.8825L69.1445 30.8786C69.7633 30.3419 70.3578 29.7818 70.9453 29.2331C74.3916 26.0492 78.7929 22.3601 83.4473 20.3689Z" fill="#FEFA7C" stroke="black"/>
<mask id="path-2-inside-1_1_9" fill="white">
<path d="M97.6043 21.236C100.227 23.4955 102.145 26.09 102.526 29.6023C102.81 37.9343 97.0034 45.1067 92.1375 51.3388C91.6517 51.9612 91.1679 52.5848 90.689 53.2125C90.5759 53.3602 90.4628 53.5079 90.3465 53.6601C90.0376 54.1051 89.799 54.5539 89.5693 55.0436C90.0065 55.0509 90.0065 55.0509 90.4527 55.0584C92.0225 55.2295 93.2263 56.0688 94.5162 56.9281C94.732 57.0707 94.732 57.0707 94.9523 57.2162C96.968 58.7199 98.2893 61.395 98.992 63.7596C99.0528 64.4486 99.0528 64.4486 99.0544 65.1629C99.0552 65.4251 99.0556 65.6872 99.0563 65.9574C99.0544 66.2281 99.0528 66.499 99.0509 66.7779C99.0526 67.0458 99.0544 67.3138 99.0563 67.5899C99.0519 69.5776 98.793 71.3215 98.1381 73.1971C98.046 73.4636 98.046 73.4636 97.9522 73.7354C97.9065 73.8638 97.8611 73.9922 97.8142 74.1246C98.0764 74.1441 98.3388 74.1634 98.6092 74.1835C101.84 74.5995 104.476 76.6515 106.53 79.0715C108.7 82.2481 108.741 85.5804 108.092 89.2902C107.94 89.9208 107.718 90.4859 107.472 91.0854C107.384 91.5547 107.303 92.0258 107.237 92.4988C107.371 92.5417 107.505 92.5846 107.643 92.6286C111.127 93.7629 113.604 95.4074 115.482 98.6236C116.99 101.959 115.946 106.339 114.789 109.628C114.187 111.218 113.484 112.735 112.655 114.219C112.422 114.637 112.197 115.059 111.972 115.481C110.242 118.645 108.046 121.455 105.677 124.163C105.456 124.416 105.238 124.672 105.022 124.929C103.727 126.449 102.314 127.853 100.903 129.264C100.467 129.701 100.033 130.139 99.5993 130.578C97.9763 132.208 96.3204 133.707 94.5162 135.137C94.2418 135.371 93.9693 135.607 93.6991 135.846C89.3894 139.655 84.5979 142.785 79.6755 145.737C79.5327 145.823 79.39 145.91 79.243 145.999C76.9163 147.4 74.4857 148.548 72.0257 149.693C71.4297 149.978 70.8445 150.279 70.2582 150.583C69.0641 151.183 67.8429 151.616 66.5721 152.024C66.2576 152.128 66.2576 152.128 65.937 152.234C65.0046 152.539 64.0746 152.826 63.1212 153.059C62.2652 153.256 62.2652 153.256 61.5375 153.517C60.6803 153.795 59.8167 153.961 58.9307 154.115C58.7717 154.144 58.6127 154.174 58.449 154.204C55.7265 154.684 52.9826 154.727 50.2265 154.719C49.6967 154.718 49.1672 154.719 48.6376 154.721C45.3368 154.723 42.4431 154.287 39.2976 153.291C38.5466 153.068 37.798 152.877 37.0359 152.697C35.2225 152.27 33.5488 151.701 31.8553 150.92C31.5849 150.798 31.3147 150.677 31.0362 150.552C25.9763 148.262 21.3396 145.46 17.0145 141.968C16.8936 141.871 16.7728 141.775 16.6482 141.675C13.2362 138.935 10.1696 135.848 7.59177 132.31C7.41691 132.072 7.41691 132.072 7.23854 131.83C3.98655 127.399 -0.400599 121.134 0.0536111 115.349C0.312817 114.119 0.696015 112.925 1.06766 111.726C1.99885 108.709 2.67376 105.6 3.00834 102.461C3.11599 101.686 3.11599 101.686 3.34788 100.826C3.68208 99.5465 3.74505 98.2453 3.83742 96.9306C3.87391 96.4314 3.91098 95.9322 3.94875 95.4333C3.96427 95.2147 3.97977 94.9958 3.99574 94.7706C4.05826 94.1478 4.05826 94.1478 4.17824 93.5537C6.38284 82.422 4.47086 68.6853 1.39478 57.9788C0.707164 55.5388 0.121505 53.1124 0.0536111 50.5678C0.0487905 50.3881 0.0439698 50.2083 0.0390031 50.0234C0.0247056 49.4048 0.0160102 48.7865 0.00944218 48.1681C0.00632965 47.9721 0.00321712 47.7761 1.0283e-05 47.5742C-0.00326758 44.8221 0.777062 42.4287 2.40929 40.2029C2.56962 39.9746 2.72994 39.7461 2.89515 39.511C4.93036 37.1692 8.36455 36.103 11.3609 35.7271C13.9518 35.5624 16.3898 35.7285 18.899 36.4338C19.1435 36.5021 19.3879 36.5704 19.6397 36.6408C25.6394 38.4816 29.8831 43.0532 32.8343 48.411C34.6456 51.8291 36.9485 56.5423 36.8022 60.4617C37.7688 59.9382 38.5051 59.289 39.2656 58.5072C39.3847 58.3865 39.5042 58.2659 39.6271 58.1418C40.0069 57.758 40.3847 57.3727 40.7626 56.987C43.6516 54.0476 43.6516 54.0476 45.0796 52.8307C45.8937 52.1285 46.6671 51.3815 47.4468 50.6416C48.6706 49.484 49.8995 48.3332 51.1424 47.1964C52.308 46.1286 53.4295 45.0254 54.5331 43.8937C55.026 43.4122 55.5209 42.9642 56.0431 42.5171C57.4801 41.2723 58.7866 39.8931 60.1137 38.5336C61.3564 37.2755 62.6381 36.128 64.0192 35.0237C64.7514 34.4246 65.3994 33.7869 66.0566 33.1064C66.9461 32.1978 67.8484 31.3253 68.8172 30.5012C69.4281 29.9715 70.0151 29.4181 70.6061 28.8662C77.5076 22.4901 88.4228 13.9001 97.6043 21.236ZM75.6708 31.958C75.4812 32.1238 75.2918 32.2897 75.0965 32.4605C73.6466 33.7488 72.2407 35.0842 70.8304 36.4154C69.8139 37.3749 68.7935 38.3294 67.7645 39.2754C66.4606 40.4742 65.1678 41.6843 63.8774 42.8978C63.1582 43.5736 62.4381 44.2475 61.7078 44.9114C59.9844 46.4795 58.3281 48.1045 56.6938 49.7657C55.7329 50.7381 54.7539 51.6679 53.7127 52.5541C53.2783 52.9355 52.8719 53.3353 52.4675 53.748C51.9325 54.2924 51.3857 54.8007 50.8036 55.294C49.6743 56.2631 48.6407 57.327 47.5995 58.3889C47.4626 58.5279 47.3257 58.6669 47.1846 58.8099C47.0621 58.9352 46.9396 59.0603 46.8134 59.1894C46.4605 59.5194 46.4605 59.5194 45.7538 59.9905C45.7538 60.146 45.7538 60.3015 45.7538 60.4617C45.616 60.5236 45.4782 60.5858 45.3361 60.6496C44.788 60.9455 44.4042 61.2661 43.9529 61.6939C43.7135 61.9196 43.7135 61.9196 43.4693 62.1497C43.3048 62.3068 43.1404 62.464 42.971 62.626C42.8094 62.7785 42.6476 62.9311 42.481 63.0882C42.1583 63.394 41.837 63.7012 41.5176 64.0102C41.1981 64.3167 40.8742 64.6187 40.5461 64.916C40.393 65.0583 40.2401 65.2003 40.0825 65.3469C39.9442 65.4724 39.8059 65.598 39.6632 65.7273C39.3395 66.1044 39.3395 66.1044 39.4363 66.6076C39.7247 67.2811 40.1885 67.5225 40.792 67.9263C44.7927 70.7277 48.729 74.8767 50.4651 79.5426C50.5718 79.8147 50.6788 80.0868 50.789 80.3671C52.0168 83.6702 52.6731 86.7335 52.6724 90.2508C52.6736 90.7714 52.6821 91.2915 52.691 91.8119C52.7094 94.0946 52.7233 97.1254 51.1683 98.9425C50.3483 99.6224 49.7012 99.6773 48.6588 99.6589C47.86 99.5237 47.4551 99.2257 46.938 98.6125C46.2702 97.343 46.6791 95.8408 46.9323 94.4983C48.0058 88.1418 46.7592 82.8415 43.1322 77.5688C42.1119 76.1398 40.9732 75.015 39.629 73.889C39.3369 73.6367 39.3369 73.6367 39.0392 73.3792C37.647 72.1997 36.2197 71.2374 34.659 70.3058C32.7834 69.1496 32.7834 69.1496 32.3264 68.2354C32.2438 67.6217 32.1712 67.0104 32.1055 66.3951C31.9081 64.6449 31.6852 62.9043 31.3842 61.1684C31.3203 60.7898 31.3203 60.7898 31.2553 60.4037C30.3399 55.5757 28.2942 50.732 25.0239 47.0343C24.9087 46.8885 24.7935 46.7429 24.675 46.5926C22.4782 43.8358 19.3147 41.947 15.8366 41.3807C13.1289 41.0928 10.2162 41.1755 7.90004 42.7555C6.52437 43.9081 5.76749 45.0162 5.47167 46.7987C5.36085 48.7417 5.51598 50.5584 5.9428 52.4524C5.99137 52.6729 6.03997 52.8933 6.09003 53.1204C6.2709 53.9199 6.45964 54.7173 6.6495 55.5147C6.74368 55.9131 6.83786 56.3117 6.93199 56.71C7.03409 57.1411 7.13623 57.5719 7.23842 58.003C7.28963 58.2193 7.34087 58.4355 7.39364 58.6584C7.6521 59.7446 7.92185 60.8258 8.21014 61.9045C8.57614 63.3372 8.78902 64.7933 9.00482 66.2547C9.03227 66.4399 9.05971 66.6248 9.08798 66.8156C9.11187 66.9815 9.13573 67.1473 9.16034 67.3181C9.23886 67.8147 9.23886 67.8147 9.47631 68.4709C9.54766 69.1381 9.59586 69.8052 9.64561 70.4742C9.6776 71.0612 9.6776 71.0612 9.94745 71.5333C10.2931 74.6805 10.2203 77.8689 10.2125 81.0298C10.2121 81.2898 10.2117 81.5499 10.2114 81.818C10.2064 84.8193 10.1965 87.8205 10.0947 90.8204C10.0874 91.0543 10.0802 91.2882 10.0727 91.5292C10.0163 92.8703 9.8404 94.1565 9.60547 95.4773C9.45641 96.3897 9.34489 97.303 9.24074 98.2215C9.22133 98.392 9.20192 98.5623 9.18192 98.7381C9.10237 99.4422 9.02397 100.146 8.94628 100.851C8.73849 102.725 8.51173 104.562 8.06291 106.397C8.00001 106.799 7.94065 107.202 7.88623 107.605C7.46541 110.225 6.79268 112.924 5.89863 115.424C5.36566 117.182 6.04819 118.461 6.76729 120.06C6.92905 120.424 6.92905 120.424 7.09407 120.794C8.94553 124.896 11.3533 128.508 14.4223 131.802C14.8609 132.274 15.2753 132.759 15.6894 133.252C19.3617 137.446 24.3954 140.741 29.2742 143.367C29.7293 143.614 30.1814 143.865 30.6332 144.118C36.487 147.358 43.0591 149.324 49.7584 149.3C50.0246 149.301 50.291 149.302 50.5653 149.303C50.819 149.302 51.0724 149.302 51.3337 149.302C51.5629 149.302 51.7923 149.301 52.0284 149.301C52.5897 149.307 52.5897 149.307 53.0564 149.035C53.4766 149.013 53.8971 148.992 54.3178 148.979C56.6594 148.901 58.8174 148.501 61.0657 147.857C61.2284 147.811 61.3912 147.764 61.5589 147.717C69.4844 145.395 76.7099 141.237 83.4446 136.55C83.6245 136.426 83.8048 136.301 83.9904 136.173C86.7983 134.232 89.5052 132.167 91.9886 129.822C92.8251 129.033 92.8251 129.033 93.3384 128.776C93.3384 128.621 93.3384 128.465 93.3384 128.305C93.4731 128.247 93.6081 128.189 93.7473 128.129C94.3659 127.787 94.7791 127.389 95.2752 126.885C95.4604 126.699 95.6455 126.512 95.8361 126.32C96.0274 126.125 96.2185 125.93 96.4154 125.729C96.6074 125.534 96.7996 125.34 96.9975 125.14C97.3544 124.779 97.7105 124.418 98.0662 124.056C98.3499 123.768 98.6384 123.484 98.9343 123.209C99.2804 122.902 99.2804 122.902 99.2276 122.416C99.4608 122.338 99.694 122.26 99.9343 122.18C100.542 121.608 101.052 120.939 101.583 120.296C101.684 120.176 101.786 120.056 101.89 119.933C103.366 118.185 104.703 116.385 105.926 114.451C106.04 114.271 106.154 114.091 106.272 113.906C108.443 110.401 111.074 105.72 110.535 101.45C109.861 99.6137 108.438 98.9465 106.728 98.1515C105.372 97.6269 104.024 97.58 102.581 97.5414C101.564 97.4137 100.954 97.0307 100.214 96.3416C99.7988 95.5332 99.8068 94.7923 99.9343 93.9122C100.243 93.0515 100.649 92.2508 101.068 91.4388C102.777 88.2499 102.777 88.2499 102.997 84.7251C102.493 83.3027 101.797 82.1746 100.641 81.1916C100.447 81.0215 100.252 80.8514 100.052 80.6764C98.7447 79.7285 97.515 79.5565 95.9296 79.7782C95.4088 79.9593 94.8934 80.1567 94.3836 80.3671C93.1573 80.8726 92.0718 81.2926 90.7472 80.956C89.8614 80.3655 89.6223 79.9704 89.3401 78.9473C89.1983 77.5627 89.9535 76.5514 90.644 75.4056C90.9069 74.9443 91.1686 74.4824 91.4289 74.0197C91.5554 73.7957 91.6819 73.5719 91.8124 73.3413C93.3017 70.6462 94.0472 68.119 93.4524 65.0093C92.8461 62.9297 91.7533 61.8042 89.8996 60.7359C88.5349 60.0746 87.1536 60.0343 85.7119 60.4617C82.674 61.9566 80.3506 64.9777 78.3061 67.593C76.8124 69.4551 75.215 71.2398 73.6096 73.0056C72.7076 73.9997 71.8622 75.0322 71.0184 76.0753C70.5037 76.6974 69.972 77.2969 69.4283 77.8936C65.896 81.4827 65.896 81.4828 63.8925 85.9029C63.868 86.0586 63.8437 86.2146 63.8187 86.375C63.651 88.3288 64.7016 90.1318 65.8654 91.6449C67.6147 93.3942 69.2196 94.328 71.7103 94.4571C74.2162 94.4192 76.3151 92.9777 78.3511 91.667C79.2331 91.1299 79.7431 90.8527 80.7944 90.8352C81.9428 91.2105 82.544 91.737 83.209 92.7344C83.4321 94.128 82.809 94.9428 82.0606 96.0472C80.6865 97.9854 80.6865 97.9854 80.3822 100.273C81.1586 102.252 82.671 103.566 84.3868 104.748C85.7991 105.219 87.3757 105.15 88.7889 104.719C89.5375 104.315 89.5375 104.315 90.0652 103.916C91.125 103.144 91.954 102.598 93.3014 102.695C94.3426 103.041 94.9457 103.808 95.4585 104.748C95.5923 106.142 94.7987 107.325 94.1563 108.526C93.6373 109.571 93.1226 110.635 93.3384 111.815C93.7422 112.331 94.1292 112.771 94.5897 113.229C96.1428 114.808 96.1428 114.808 96.6363 115.82C96.613 117.102 96.2451 117.881 95.4585 118.882C94.6811 119.271 93.9396 119.263 93.1028 119.118C91.1281 118.262 89.8958 116.612 89.0393 114.687C88.5677 113.437 88.2325 112.17 87.9204 110.873C87.4836 110.437 86.7564 110.503 86.1682 110.431C82.4272 109.908 79.5358 108.522 77.1578 105.529C75.8077 103.68 75.4621 102.023 75.1997 99.8014C74.9067 99.8068 74.6136 99.8123 74.3116 99.8179C69.6062 99.8803 65.9396 99.1852 62.4202 95.8262C60.0619 93.3586 58.6089 90.3088 58.6511 86.8747C58.6525 86.6871 58.6542 86.4994 58.6558 86.306C58.7345 81.8432 61.187 78.9549 64.128 75.7735C65.0501 74.7458 65.9379 73.6956 66.8076 72.6228C67.6691 71.5625 68.5678 70.547 69.4879 69.5374C70.0316 68.9256 70.5484 68.298 71.0624 67.6613C71.9722 66.5362 72.9326 65.4705 73.9123 64.4065C74.4758 63.7787 75.0094 63.1358 75.5382 62.4788C76.2972 61.5377 77.0859 60.6395 77.9087 59.755C78.9926 58.5872 80.0119 57.38 81.0102 56.1385C81.5195 55.5093 82.0359 54.886 82.5515 54.2618C83.2432 53.4243 83.9327 52.585 84.6224 51.7457C84.7894 51.5428 84.9564 51.34 85.1284 51.1311C87.7227 47.9363 90.1938 44.6226 92.3961 41.1451C92.5316 40.9329 92.5316 40.9329 92.6699 40.7162C96.0927 35.4147 96.0927 35.4147 96.8719 29.3668C95.977 26.9988 93.9153 25.2754 91.6894 24.1843C86.437 22.1512 79.2826 28.7882 75.6708 31.958Z"/>
</mask>
<path d="M97.6043 21.236C100.227 23.4955 102.145 26.09 102.526 29.6023C102.81 37.9343 97.0034 45.1067 92.1375 51.3388C91.6517 51.9612 91.1679 52.5848 90.689 53.2125C90.5759 53.3602 90.4628 53.5079 90.3465 53.6601C90.0376 54.1051 89.799 54.5539 89.5693 55.0436C90.0065 55.0509 90.0065 55.0509 90.4527 55.0584C92.0225 55.2295 93.2263 56.0688 94.5162 56.9281C94.732 57.0707 94.732 57.0707 94.9523 57.2162C96.968 58.7199 98.2893 61.395 98.992 63.7596C99.0528 64.4486 99.0528 64.4486 99.0544 65.1629C99.0552 65.4251 99.0556 65.6872 99.0563 65.9574C99.0544 66.2281 99.0528 66.499 99.0509 66.7779C99.0526 67.0458 99.0544 67.3138 99.0563 67.5899C99.0519 69.5776 98.793 71.3215 98.1381 73.1971C98.046 73.4636 98.046 73.4636 97.9522 73.7354C97.9065 73.8638 97.8611 73.9922 97.8142 74.1246C98.0764 74.1441 98.3388 74.1634 98.6092 74.1835C101.84 74.5995 104.476 76.6515 106.53 79.0715C108.7 82.2481 108.741 85.5804 108.092 89.2902C107.94 89.9208 107.718 90.4859 107.472 91.0854C107.384 91.5547 107.303 92.0258 107.237 92.4988C107.371 92.5417 107.505 92.5846 107.643 92.6286C111.127 93.7629 113.604 95.4074 115.482 98.6236C116.99 101.959 115.946 106.339 114.789 109.628C114.187 111.218 113.484 112.735 112.655 114.219C112.422 114.637 112.197 115.059 111.972 115.481C110.242 118.645 108.046 121.455 105.677 124.163C105.456 124.416 105.238 124.672 105.022 124.929C103.727 126.449 102.314 127.853 100.903 129.264C100.467 129.701 100.033 130.139 99.5993 130.578C97.9763 132.208 96.3204 133.707 94.5162 135.137C94.2418 135.371 93.9693 135.607 93.6991 135.846C89.3894 139.655 84.5979 142.785 79.6755 145.737C79.5327 145.823 79.39 145.91 79.243 145.999C76.9163 147.4 74.4857 148.548 72.0257 149.693C71.4297 149.978 70.8445 150.279 70.2582 150.583C69.0641 151.183 67.8429 151.616 66.5721 152.024C66.2576 152.128 66.2576 152.128 65.937 152.234C65.0046 152.539 64.0746 152.826 63.1212 153.059C62.2652 153.256 62.2652 153.256 61.5375 153.517C60.6803 153.795 59.8167 153.961 58.9307 154.115C58.7717 154.144 58.6127 154.174 58.449 154.204C55.7265 154.684 52.9826 154.727 50.2265 154.719C49.6967 154.718 49.1672 154.719 48.6376 154.721C45.3368 154.723 42.4431 154.287 39.2976 153.291C38.5466 153.068 37.798 152.877 37.0359 152.697C35.2225 152.27 33.5488 151.701 31.8553 150.92C31.5849 150.798 31.3147 150.677 31.0362 150.552C25.9763 148.262 21.3396 145.46 17.0145 141.968C16.8936 141.871 16.7728 141.775 16.6482 141.675C13.2362 138.935 10.1696 135.848 7.59177 132.31C7.41691 132.072 7.41691 132.072 7.23854 131.83C3.98655 127.399 -0.400599 121.134 0.0536111 115.349C0.312817 114.119 0.696015 112.925 1.06766 111.726C1.99885 108.709 2.67376 105.6 3.00834 102.461C3.11599 101.686 3.11599 101.686 3.34788 100.826C3.68208 99.5465 3.74505 98.2453 3.83742 96.9306C3.87391 96.4314 3.91098 95.9322 3.94875 95.4333C3.96427 95.2147 3.97977 94.9958 3.99574 94.7706C4.05826 94.1478 4.05826 94.1478 4.17824 93.5537C6.38284 82.422 4.47086 68.6853 1.39478 57.9788C0.707164 55.5388 0.121505 53.1124 0.0536111 50.5678C0.0487905 50.3881 0.0439698 50.2083 0.0390031 50.0234C0.0247056 49.4048 0.0160102 48.7865 0.00944218 48.1681C0.00632965 47.9721 0.00321712 47.7761 1.0283e-05 47.5742C-0.00326758 44.8221 0.777062 42.4287 2.40929 40.2029C2.56962 39.9746 2.72994 39.7461 2.89515 39.511C4.93036 37.1692 8.36455 36.103 11.3609 35.7271C13.9518 35.5624 16.3898 35.7285 18.899 36.4338C19.1435 36.5021 19.3879 36.5704 19.6397 36.6408C25.6394 38.4816 29.8831 43.0532 32.8343 48.411C34.6456 51.8291 36.9485 56.5423 36.8022 60.4617C37.7688 59.9382 38.5051 59.289 39.2656 58.5072C39.3847 58.3865 39.5042 58.2659 39.6271 58.1418C40.0069 57.758 40.3847 57.3727 40.7626 56.987C43.6516 54.0476 43.6516 54.0476 45.0796 52.8307C45.8937 52.1285 46.6671 51.3815 47.4468 50.6416C48.6706 49.484 49.8995 48.3332 51.1424 47.1964C52.308 46.1286 53.4295 45.0254 54.5331 43.8937C55.026 43.4122 55.5209 42.9642 56.0431 42.5171C57.4801 41.2723 58.7866 39.8931 60.1137 38.5336C61.3564 37.2755 62.6381 36.128 64.0192 35.0237C64.7514 34.4246 65.3994 33.7869 66.0566 33.1064C66.9461 32.1978 67.8484 31.3253 68.8172 30.5012C69.4281 29.9715 70.0151 29.4181 70.6061 28.8662C77.5076 22.4901 88.4228 13.9001 97.6043 21.236ZM75.6708 31.958C75.4812 32.1238 75.2918 32.2897 75.0965 32.4605C73.6466 33.7488 72.2407 35.0842 70.8304 36.4154C69.8139 37.3749 68.7935 38.3294 67.7645 39.2754C66.4606 40.4742 65.1678 41.6843 63.8774 42.8978C63.1582 43.5736 62.4381 44.2475 61.7078 44.9114C59.9844 46.4795 58.3281 48.1045 56.6938 49.7657C55.7329 50.7381 54.7539 51.6679 53.7127 52.5541C53.2783 52.9355 52.8719 53.3353 52.4675 53.748C51.9325 54.2924 51.3857 54.8007 50.8036 55.294C49.6743 56.2631 48.6407 57.327 47.5995 58.3889C47.4626 58.5279 47.3257 58.6669 47.1846 58.8099C47.0621 58.9352 46.9396 59.0603 46.8134 59.1894C46.4605 59.5194 46.4605 59.5194 45.7538 59.9905C45.7538 60.146 45.7538 60.3015 45.7538 60.4617C45.616 60.5236 45.4782 60.5858 45.3361 60.6496C44.788 60.9455 44.4042 61.2661 43.9529 61.6939C43.7135 61.9196 43.7135 61.9196 43.4693 62.1497C43.3048 62.3068 43.1404 62.464 42.971 62.626C42.8094 62.7785 42.6476 62.9311 42.481 63.0882C42.1583 63.394 41.837 63.7012 41.5176 64.0102C41.1981 64.3167 40.8742 64.6187 40.5461 64.916C40.393 65.0583 40.2401 65.2003 40.0825 65.3469C39.9442 65.4724 39.8059 65.598 39.6632 65.7273C39.3395 66.1044 39.3395 66.1044 39.4363 66.6076C39.7247 67.2811 40.1885 67.5225 40.792 67.9263C44.7927 70.7277 48.729 74.8767 50.4651 79.5426C50.5718 79.8147 50.6788 80.0868 50.789 80.3671C52.0168 83.6702 52.6731 86.7335 52.6724 90.2508C52.6736 90.7714 52.6821 91.2915 52.691 91.8119C52.7094 94.0946 52.7233 97.1254 51.1683 98.9425C50.3483 99.6224 49.7012 99.6773 48.6588 99.6589C47.86 99.5237 47.4551 99.2257 46.938 98.6125C46.2702 97.343 46.6791 95.8408 46.9323 94.4983C48.0058 88.1418 46.7592 82.8415 43.1322 77.5688C42.1119 76.1398 40.9732 75.015 39.629 73.889C39.3369 73.6367 39.3369 73.6367 39.0392 73.3792C37.647 72.1997 36.2197 71.2374 34.659 70.3058C32.7834 69.1496 32.7834 69.1496 32.3264 68.2354C32.2438 67.6217 32.1712 67.0104 32.1055 66.3951C31.9081 64.6449 31.6852 62.9043 31.3842 61.1684C31.3203 60.7898 31.3203 60.7898 31.2553 60.4037C30.3399 55.5757 28.2942 50.732 25.0239 47.0343C24.9087 46.8885 24.7935 46.7429 24.675 46.5926C22.4782 43.8358 19.3147 41.947 15.8366 41.3807C13.1289 41.0928 10.2162 41.1755 7.90004 42.7555C6.52437 43.9081 5.76749 45.0162 5.47167 46.7987C5.36085 48.7417 5.51598 50.5584 5.9428 52.4524C5.99137 52.6729 6.03997 52.8933 6.09003 53.1204C6.2709 53.9199 6.45964 54.7173 6.6495 55.5147C6.74368 55.9131 6.83786 56.3117 6.93199 56.71C7.03409 57.1411 7.13623 57.5719 7.23842 58.003C7.28963 58.2193 7.34087 58.4355 7.39364 58.6584C7.6521 59.7446 7.92185 60.8258 8.21014 61.9045C8.57614 63.3372 8.78902 64.7933 9.00482 66.2547C9.03227 66.4399 9.05971 66.6248 9.08798 66.8156C9.11187 66.9815 9.13573 67.1473 9.16034 67.3181C9.23886 67.8147 9.23886 67.8147 9.47631 68.4709C9.54766 69.1381 9.59586 69.8052 9.64561 70.4742C9.6776 71.0612 9.6776 71.0612 9.94745 71.5333C10.2931 74.6805 10.2203 77.8689 10.2125 81.0298C10.2121 81.2898 10.2117 81.5499 10.2114 81.818C10.2064 84.8193 10.1965 87.8205 10.0947 90.8204C10.0874 91.0543 10.0802 91.2882 10.0727 91.5292C10.0163 92.8703 9.8404 94.1565 9.60547 95.4773C9.45641 96.3897 9.34489 97.303 9.24074 98.2215C9.22133 98.392 9.20192 98.5623 9.18192 98.7381C9.10237 99.4422 9.02397 100.146 8.94628 100.851C8.73849 102.725 8.51173 104.562 8.06291 106.397C8.00001 106.799 7.94065 107.202 7.88623 107.605C7.46541 110.225 6.79268 112.924 5.89863 115.424C5.36566 117.182 6.04819 118.461 6.76729 120.06C6.92905 120.424 6.92905 120.424 7.09407 120.794C8.94553 124.896 11.3533 128.508 14.4223 131.802C14.8609 132.274 15.2753 132.759 15.6894 133.252C19.3617 137.446 24.3954 140.741 29.2742 143.367C29.7293 143.614 30.1814 143.865 30.6332 144.118C36.487 147.358 43.0591 149.324 49.7584 149.3C50.0246 149.301 50.291 149.302 50.5653 149.303C50.819 149.302 51.0724 149.302 51.3337 149.302C51.5629 149.302 51.7923 149.301 52.0284 149.301C52.5897 149.307 52.5897 149.307 53.0564 149.035C53.4766 149.013 53.8971 148.992 54.3178 148.979C56.6594 148.901 58.8174 148.501 61.0657 147.857C61.2284 147.811 61.3912 147.764 61.5589 147.717C69.4844 145.395 76.7099 141.237 83.4446 136.55C83.6245 136.426 83.8048 136.301 83.9904 136.173C86.7983 134.232 89.5052 132.167 91.9886 129.822C92.8251 129.033 92.8251 129.033 93.3384 128.776C93.3384 128.621 93.3384 128.465 93.3384 128.305C93.4731 128.247 93.6081 128.189 93.7473 128.129C94.3659 127.787 94.7791 127.389 95.2752 126.885C95.4604 126.699 95.6455 126.512 95.8361 126.32C96.0274 126.125 96.2185 125.93 96.4154 125.729C96.6074 125.534 96.7996 125.34 96.9975 125.14C97.3544 124.779 97.7105 124.418 98.0662 124.056C98.3499 123.768 98.6384 123.484 98.9343 123.209C99.2804 122.902 99.2804 122.902 99.2276 122.416C99.4608 122.338 99.694 122.26 99.9343 122.18C100.542 121.608 101.052 120.939 101.583 120.296C101.684 120.176 101.786 120.056 101.89 119.933C103.366 118.185 104.703 116.385 105.926 114.451C106.04 114.271 106.154 114.091 106.272 113.906C108.443 110.401 111.074 105.72 110.535 101.45C109.861 99.6137 108.438 98.9465 106.728 98.1515C105.372 97.6269 104.024 97.58 102.581 97.5414C101.564 97.4137 100.954 97.0307 100.214 96.3416C99.7988 95.5332 99.8068 94.7923 99.9343 93.9122C100.243 93.0515 100.649 92.2508 101.068 91.4388C102.777 88.2499 102.777 88.2499 102.997 84.7251C102.493 83.3027 101.797 82.1746 100.641 81.1916C100.447 81.0215 100.252 80.8514 100.052 80.6764C98.7447 79.7285 97.515 79.5565 95.9296 79.7782C95.4088 79.9593 94.8934 80.1567 94.3836 80.3671C93.1573 80.8726 92.0718 81.2926 90.7472 80.956C89.8614 80.3655 89.6223 79.9704 89.3401 78.9473C89.1983 77.5627 89.9535 76.5514 90.644 75.4056C90.9069 74.9443 91.1686 74.4824 91.4289 74.0197C91.5554 73.7957 91.6819 73.5719 91.8124 73.3413C93.3017 70.6462 94.0472 68.119 93.4524 65.0093C92.8461 62.9297 91.7533 61.8042 89.8996 60.7359C88.5349 60.0746 87.1536 60.0343 85.7119 60.4617C82.674 61.9566 80.3506 64.9777 78.3061 67.593C76.8124 69.4551 75.215 71.2398 73.6096 73.0056C72.7076 73.9997 71.8622 75.0322 71.0184 76.0753C70.5037 76.6974 69.972 77.2969 69.4283 77.8936C65.896 81.4827 65.896 81.4828 63.8925 85.9029C63.868 86.0586 63.8437 86.2146 63.8187 86.375C63.651 88.3288 64.7016 90.1318 65.8654 91.6449C67.6147 93.3942 69.2196 94.328 71.7103 94.4571C74.2162 94.4192 76.3151 92.9777 78.3511 91.667C79.2331 91.1299 79.7431 90.8527 80.7944 90.8352C81.9428 91.2105 82.544 91.737 83.209 92.7344C83.4321 94.128 82.809 94.9428 82.0606 96.0472C80.6865 97.9854 80.6865 97.9854 80.3822 100.273C81.1586 102.252 82.671 103.566 84.3868 104.748C85.7991 105.219 87.3757 105.15 88.7889 104.719C89.5375 104.315 89.5375 104.315 90.0652 103.916C91.125 103.144 91.954 102.598 93.3014 102.695C94.3426 103.041 94.9457 103.808 95.4585 104.748C95.5923 106.142 94.7987 107.325 94.1563 108.526C93.6373 109.571 93.1226 110.635 93.3384 111.815C93.7422 112.331 94.1292 112.771 94.5897 113.229C96.1428 114.808 96.1428 114.808 96.6363 115.82C96.613 117.102 96.2451 117.881 95.4585 118.882C94.6811 119.271 93.9396 119.263 93.1028 119.118C91.1281 118.262 89.8958 116.612 89.0393 114.687C88.5677 113.437 88.2325 112.17 87.9204 110.873C87.4836 110.437 86.7564 110.503 86.1682 110.431C82.4272 109.908 79.5358 108.522 77.1578 105.529C75.8077 103.68 75.4621 102.023 75.1997 99.8014C74.9067 99.8068 74.6136 99.8123 74.3116 99.8179C69.6062 99.8803 65.9396 99.1852 62.4202 95.8262C60.0619 93.3586 58.6089 90.3088 58.6511 86.8747C58.6525 86.6871 58.6542 86.4994 58.6558 86.306C58.7345 81.8432 61.187 78.9549 64.128 75.7735C65.0501 74.7458 65.9379 73.6956 66.8076 72.6228C67.6691 71.5625 68.5678 70.547 69.4879 69.5374C70.0316 68.9256 70.5484 68.298 71.0624 67.6613C71.9722 66.5362 72.9326 65.4705 73.9123 64.4065C74.4758 63.7787 75.0094 63.1358 75.5382 62.4788C76.2972 61.5377 77.0859 60.6395 77.9087 59.755C78.9926 58.5872 80.0119 57.38 81.0102 56.1385C81.5195 55.5093 82.0359 54.886 82.5515 54.2618C83.2432 53.4243 83.9327 52.585 84.6224 51.7457C84.7894 51.5428 84.9564 51.34 85.1284 51.1311C87.7227 47.9363 90.1938 44.6226 92.3961 41.1451C92.5316 40.9329 92.5316 40.9329 92.6699 40.7162C96.0927 35.4147 96.0927 35.4147 96.8719 29.3668C95.977 26.9988 93.9153 25.2754 91.6894 24.1843C86.437 22.1512 79.2826 28.7882 75.6708 31.958Z" fill="#040301" stroke="black" stroke-width="2" mask="url(#path-2-inside-1_1_9)"/>
<path d="M17.3026 12.3365C18.1015 12.4762 18.7954 12.8712 19.4559 13.4077C20.1386 13.9624 20.7421 14.6269 21.3963 15.2886L22.0038 15.896L23.2616 17.1607C23.9031 17.8076 24.5474 18.4509 25.1913 19.0933V19.0943C25.6003 19.5045 26.0096 19.9142 26.4178 20.3247L26.4188 20.3267C26.6109 20.5185 26.8031 20.7102 27.0008 20.9077C27.1786 21.0878 27.3567 21.2681 27.5399 21.4536L27.5409 21.4546C27.6916 21.6064 27.843 21.7576 27.9979 21.9136C28.5774 22.578 28.9454 23.1385 29.119 23.9117C28.915 24.9098 28.2996 25.7533 27.4325 26.3882C26.924 26.5382 26.5846 26.4675 25.9354 26.3091C25.7229 26.1639 25.6231 26.095 25.5252 26.0152C25.4145 25.9249 25.3027 25.8192 25.0418 25.5708L25.0409 25.5699L24.4266 24.9888C24.1926 24.7597 23.9597 24.5294 23.7264 24.2993L23.7254 24.2984L23.3123 23.8931C22.2028 22.8016 21.104 21.6984 20.0047 20.5923H20.0038L19.0106 19.5952C18.2726 18.8549 17.5353 18.114 16.7987 17.3726H16.7977C16.5567 17.1308 16.3149 16.8893 16.0721 16.649C15.6074 16.1889 15.3417 15.8897 15.1649 15.5659C14.996 15.2567 14.8911 14.8911 14.8211 14.2788C14.8298 13.8868 14.8555 13.7429 14.9061 13.6255C14.9643 13.4908 15.0687 13.3538 15.3524 13.0113C15.5376 12.8622 15.7241 12.7137 15.9149 12.5601L15.9354 12.5425L15.9549 12.524C16.0555 12.4234 16.1317 12.3944 16.2284 12.3794C16.2892 12.37 16.3621 12.3671 16.4647 12.3658C16.5559 12.3646 16.6934 12.3651 16.8241 12.3609H16.8338C17.0745 12.3488 17.0949 12.3469 17.3026 12.3365Z" fill="#040404" stroke="black"/>
<path d="M38.8965 6.10547C38.8948 5.81879 38.8935 5.53181 38.8916 5.23633C38.8959 3.62732 38.9014 2.90861 39.0137 2.40137C39.1119 1.95737 39.2896 1.68214 39.7637 1.00586C40.1009 0.776094 40.3461 0.662342 40.5908 0.598633C40.849 0.531442 41.1332 0.511378 41.5723 0.501953C42.408 0.730582 42.9359 0.96853 43.4004 1.5498C43.6189 2.66927 43.5955 3.79315 43.5801 5.00879V5.01562L43.583 6.1123C43.5844 6.87381 43.58 7.63531 43.5713 8.39746V8.39844C43.5606 9.3811 43.563 10.3622 43.5703 11.3418C43.5745 12.0925 43.5723 12.844 43.5674 13.5967V13.5977L43.5693 14.6855C43.5716 15.1843 43.5646 15.6835 43.5557 16.1865V16.1924C43.5539 16.4586 43.5516 16.7248 43.5498 16.998C43.4386 17.4414 43.3034 17.6771 43.1289 17.8652C42.9339 18.0754 42.6767 18.2459 42.2432 18.54C41.5832 18.717 41.0077 18.7061 40.3252 18.54C39.6364 17.9967 39.2393 17.3978 38.9473 16.5479C38.9272 16.1462 38.9185 15.7423 38.917 15.3359V15.335L38.9121 14.5225C38.9119 14.2332 38.9123 13.9435 38.9121 13.6455L38.9111 13.6445L38.9092 12.7402C38.908 12.1089 38.9072 11.4772 38.9072 10.8457L38.9004 8.42383C38.8973 7.65252 38.8967 6.88113 38.8965 6.1084V6.10547Z" fill="#020102" stroke="black"/>
<path d="M65.4279 7.38971C65.7941 7.17955 66.0563 7.21647 67.0011 7.45612C67.7532 7.89272 68.1523 8.18094 68.6037 8.83502C68.6847 9.22736 68.7293 9.48001 68.7345 9.72076C68.7395 9.95189 68.7077 10.1904 68.6134 10.5421C67.9747 11.4526 67.243 12.2618 66.4591 13.1046L66.4552 13.1085C65.9576 13.6547 65.5039 14.2296 65.0607 14.7901C64.1076 15.9623 63.0905 17.0705 62.0431 18.1797H62.0421C61.2784 18.9899 60.5434 19.8169 59.8302 20.6739C59.5329 21.0042 59.27 21.2163 58.9904 21.3633C58.7255 21.5025 58.4209 21.5939 58.0168 21.6592C57.16 21.5183 56.571 21.0849 55.882 20.4102C55.7259 19.3717 55.8607 18.476 56.4201 17.6104C56.9937 16.877 57.6237 16.1932 58.2736 15.4903L58.2765 15.4874C58.8309 14.8773 59.3508 14.2533 59.8634 13.6182L59.8644 13.6192C60.7403 12.5385 61.6367 11.4761 62.548 10.421L62.549 10.42C62.6748 10.2737 62.8006 10.126 62.9298 9.97565C63.6148 9.18551 64.118 8.60634 64.5216 8.1817C64.9294 7.75277 65.2042 7.51809 65.4279 7.38971Z" fill="#040404" stroke="black"/>
</svg>
